<?xml version="1.0" standalone="no"?>
<!DOCTYPE svg PUBLIC "-//W3C//DTD SVG 20010904//EN"
 "http://www.w3.org/TR/2001/REC-SVG-20010904/DTD/svg10.dtd">
<svg version="1.0" xmlns="http://www.w3.org/2000/svg"
 width="320.000000pt" height="450.000000pt" viewBox="0 0 320.000000 450.000000"
 preserveAspectRatio="xMidYMid meet">

<g transform="translate(0.000000,450.000000) scale(0.100000,-0.100000)"
fill="#000000" stroke="none">
<path d="M1325 4449 c-14 -12 -60 -35 -100 -50 -60 -23 -90 -29 -164 -30 -64
-1 -94 -5 -102 -15 -9 -11 -65 -14 -300 -14 l-289 0 0 -50 0 -50 -40 0 c-22 0
-40 -4 -40 -10 0 -5 18 -10 40 -10 l40 0 0 -45 0 -45 -104 0 -104 0 -6 -26
c-4 -16 -2 -32 4 -38 7 -6 11 -7 10 -1 -2 6 -2 20 -1 33 1 21 4 22 102 22
l100 0 -3 -46 -3 -47 -43 -1 -42 -1 0 43 c0 23 -4 42 -10 42 -5 0 -10 -22 -10
-50 l0 -50 60 0 60 0 0 54 0 55 38 4 37 4 -37 1 -38 2 0 45 0 45 40 0 c22 0
40 5 40 10 0 6 -18 10 -40 10 l-40 0 0 45 0 45 305 0 c168 0 305 -3 305 -6 0
-17 -47 -62 -83 -79 -37 -17 -48 -31 -87 -110 -25 -49 -61 -115 -81 -145 -32
-49 -43 -58 -112 -87 -43 -18 -85 -29 -97 -26 -11 3 -40 0 -64 -7 -34 -9 -56
-9 -101 0 -49 10 -59 10 -74 -4 -12 -11 -34 -15 -69 -14 l-52 2 0 65 c0 35 -3
61 -7 58 -3 -4 -7 -105 -7 -226 -1 -121 -4 -222 -7 -225 -3 -4 -19 -2 -35 4
-28 11 -28 11 -9 -9 10 -12 26 -21 36 -21 18 0 19 -54 19 -1562 l0 -1563 105
-3 105 -3 0 -44 0 -45 -42 0 c-23 0 -38 -3 -34 -7 4 -5 22 -8 39 -8 31 0 32
-1 35 -53 l3 -52 682 2 682 3 -675 5 -675 5 -3 46 -3 47 56 -2 56 -2 -3 60 -3
61 -53 0 -52 0 0 53 0 52 -60 0 -60 0 0 -45 c0 -25 5 -45 10 -45 6 0 10 18 10
40 l0 40 45 0 45 0 0 -47 0 -48 -100 3 -100 3 0 1560 c0 1134 3 1559 11 1559
7 0 9 -9 6 -22 -3 -13 1 -32 9 -42 8 -11 14 -15 14 -9 0 7 -5 15 -10 18 -7 4
-6 14 1 28 16 30 28 37 66 37 40 0 77 16 128 54 29 23 37 26 32 12 -4 -10 -10
-28 -13 -41 -3 -12 -16 -27 -30 -34 -30 -13 -64 -68 -63 -101 1 -20 2 -21 6
-5 11 51 26 71 63 87 42 17 60 47 60 98 0 24 10 36 57 69 64 46 77 50 68 20
-12 -36 15 -17 42 30 13 23 43 68 66 99 43 57 90 137 149 250 35 68 53 80 46
31 -3 -18 3 -54 14 -82 15 -40 17 -56 9 -74 -15 -34 -13 -42 5 -18 15 20 15
20 30 1 18 -26 18 -21 -6 50 -19 56 -19 58 -1 37 24 -28 64 -158 56 -182 -3
-10 1 -23 8 -30 14 -11 12 20 -9 117 -3 17 -5 32 -3 32 2 0 19 -4 38 -10 41
-11 32 1 -11 16 -24 8 -40 25 -64 71 l-32 61 34 79 c18 43 44 87 56 97 36 30
119 63 170 69 l47 4 -14 -28 c-8 -15 -19 -30 -24 -33 -6 -4 -2 -34 9 -72 14
-49 17 -72 9 -88 -10 -21 -10 -21 6 -1 10 13 13 29 9 47 -6 32 14 39 36 13 7
-8 17 -15 22 -15 5 0 -3 11 -18 25 -15 14 -31 25 -35 25 -17 0 -9 44 16 87 24
41 28 43 73 44 40 1 42 2 17 8 -16 3 -30 10 -30 15 0 15 125 96 148 96 12 0
29 5 37 10 10 7 -7 10 -56 10 -58 0 -76 -4 -99 -21z m-655 -593 c0 -24 -79
-103 -133 -134 -28 -16 -76 -32 -105 -36 -29 -4 -62 -11 -75 -16 -19 -8 -17
-9 16 -9 53 -1 48 -22 -21 -74 -49 -37 -67 -45 -120 -50 l-62 -7 0 154 c0 170
1 173 63 153 21 -7 32 -5 46 7 16 14 25 15 69 4 57 -13 61 -17 34 -41 -12 -11
-41 -17 -87 -19 l-70 -3 68 -9 c63 -8 69 -7 100 17 55 41 102 57 155 50 34 -4
57 -1 78 10 36 20 44 21 44 3z m-198 -3531 l-4 -45 -44 0 -44 0 0 45 0 45 48
0 47 0 -3 -45z"/>
<path d="M195 4340 c-3 -5 -1 -10 4 -10 6 0 11 5 11 10 0 6 -2 10 -4 10 -3 0
-8 -4 -11 -10z"/>
<path d="M158 4315 c2 -14 6 -25 8 -25 2 0 4 11 4 25 0 14 -4 25 -9 25 -4 0
-6 -11 -3 -25z"/>
<path d="M2148 4333 l672 -3 0 -45 0 -45 -55 0 -55 0 0 -60 0 -60 55 0 55 0 0
-55 0 -55 60 0 60 0 0 55 0 55 45 0 45 0 0 -1550 0 -1550 -25 0 c-22 0 -24 2
-14 19 10 14 9 23 -4 42 -10 13 -17 19 -17 13 0 -5 5 -15 11 -21 8 -8 6 -18
-6 -37 -13 -20 -26 -26 -54 -26 -38 0 -114 -30 -125 -49 -4 -6 -16 -15 -26
-21 -17 -9 -18 -7 -10 21 11 38 26 56 51 64 32 10 63 105 40 119 -5 4 -7 -3
-4 -14 7 -28 -15 -78 -38 -85 -11 -4 -33 -18 -49 -32 -25 -20 -30 -32 -30 -68
0 -42 -2 -45 -57 -79 -66 -41 -77 -44 -68 -16 11 33 -21 13 -36 -23 -7 -18
-42 -69 -76 -114 -35 -46 -63 -87 -63 -93 0 -6 -11 -27 -24 -48 -13 -21 -38
-66 -55 -100 -33 -66 -67 -87 -51 -32 7 23 4 43 -12 81 -17 41 -19 54 -9 76
15 32 7 43 -9 13 -11 -21 -12 -21 -25 -3 -19 23 -18 15 0 -37 8 -24 13 -45 10
-48 -8 -9 -44 82 -50 128 -11 77 -14 88 -32 94 -15 6 -16 5 -5 -5 6 -7 12 -24
12 -37 0 -14 5 -42 12 -63 14 -48 7 -57 -35 -41 -29 10 -30 10 -13 -3 11 -8
28 -15 37 -15 12 0 29 -22 49 -62 36 -71 36 -87 -10 -183 -28 -59 -35 -66 -93
-95 -34 -17 -86 -33 -116 -37 l-53 -6 23 41 c22 38 23 43 10 89 -8 26 -15 58
-15 71 -1 12 -5 22 -10 22 -5 0 -6 -16 -3 -35 6 -38 -10 -48 -33 -21 -6 8 -18
12 -26 9 -12 -4 -10 -9 8 -19 13 -8 31 -17 41 -20 26 -9 21 -47 -14 -103 -34
-57 -47 -63 -124 -60 -30 1 -58 -1 -62 -4 -3 -4 23 -7 58 -7 l64 0 -30 -25
c-41 -33 -79 -51 -150 -71 -33 -9 -71 -20 -85 -24 -15 -5 20 -8 87 -7 106 0
114 1 135 24 27 29 81 58 157 84 49 17 89 19 447 19 l393 0 3 53 c3 51 3 52
35 53 49 1 53 14 5 14 l-42 0 0 45 0 44 108 3 107 3 3 38 c2 21 -1 37 -7 37
-6 0 -11 -13 -11 -30 0 -29 -2 -30 -45 -30 l-45 0 0 50 0 50 -60 0 -60 0 0
-55 c0 -43 -3 -53 -14 -49 -8 3 -23 1 -33 -5 -15 -9 -13 -10 15 -11 31 0 32
-1 32 -45 0 -44 -1 -45 -32 -46 -47 -2 -62 1 -70 14 -5 8 -8 6 -8 -5 0 -18 6
-20 70 -22 35 -1 35 -1 35 -46 l0 -45 -275 -3 c-277 -3 -350 4 -350 32 0 18
58 69 98 85 30 13 49 43 96 152 6 14 29 53 51 87 37 56 46 64 112 92 45 19 90
30 118 30 26 0 55 5 66 10 14 8 37 8 78 -1 50 -9 62 -9 83 5 14 9 41 15 64 14
21 -1 47 2 57 6 15 7 17 1 17 -74 0 -51 4 -79 10 -75 6 4 10 67 10 156 0 93
-4 149 -10 149 -6 0 -10 -30 -10 -69 0 -66 -1 -69 -28 -80 -20 -9 -36 -9 -56
-1 -21 8 -31 7 -42 -5 -18 -18 -44 -18 -99 -2 l-39 12 28 23 c23 17 43 22 95
23 l66 2 -65 8 c-61 8 -67 7 -105 -19 -66 -45 -96 -54 -147 -47 -33 4 -57 1
-77 -10 -17 -8 -38 -15 -47 -15 -16 0 -1 24 56 93 26 32 135 87 171 87 19 0
54 7 79 14 l45 15 -47 0 c-51 1 -66 21 -29 40 10 6 37 26 60 45 31 26 51 35
74 34 18 -1 49 2 70 6 l37 8 0 -56 c0 -31 4 -56 9 -56 5 0 8 26 8 59 -2 58 -2
59 23 50 l25 -9 -23 19 -22 19 -3 1549 -2 1548 -107 3 -108 3 0 44 0 45 40 0
c22 0 40 5 40 10 0 6 -18 10 -40 10 l-40 0 0 50 0 50 -677 -2 -678 -3 673 -2z
m672 -158 l0 -45 -44 0 -44 0 -4 45 -3 45 47 0 48 0 0 -45z m102 -102 l-4 -48
-41 1 -42 1 -3 47 -3 46 48 0 48 0 -3 -47z m0 -3637 l3 -44 -47 -4 -48 -3 0
48 0 47 44 0 44 0 4 -44z"/>
<path d="M2920 4246 c0 -53 4 -98 10 -101 6 -4 10 28 10 89 l0 96 45 0 45 0 0
-45 0 -45 -40 0 c-22 0 -40 -5 -40 -11 0 -6 19 -9 48 -7 l47 3 3 58 3 57 -66
0 -65 0 0 -94z"/>
<path d="M261 4229 c-1 -61 2 -89 9 -84 12 8 14 175 1 175 -5 0 -9 -41 -10
-91z"/>
<path d="M160 4230 c0 -5 20 -10 45 -10 25 0 45 5 45 10 0 6 -20 10 -45 10
-25 0 -45 -4 -45 -10z"/>
<path d="M2710 370 c0 -5 7 -7 15 -4 8 4 15 8 15 10 0 2 -7 4 -15 4 -8 0 -15
-4 -15 -10z"/>
<path d="M260 264 l0 -95 -42 3 -43 3 0 45 c0 45 0 45 40 51 39 7 39 7 -9 5
l-49 -1 0 -55 0 -55 62 -3 61 -3 0 101 c0 60 -4 100 -10 100 -6 0 -10 -39 -10
-96z"/>
<path d="M2920 305 c0 -30 5 -55 10 -55 6 0 10 25 10 55 0 30 -4 55 -10 55 -5
0 -10 -25 -10 -55z"/>
<path d="M3026 265 c4 -8 10 -12 15 -9 11 6 2 24 -11 24 -5 0 -7 -7 -4 -15z"/>
<path d="M2925 170 c-3 -5 -1 -10 4 -10 6 0 11 5 11 10 0 6 -2 10 -4 10 -3 0
-8 -4 -11 -10z"/>
<path d="M2990 170 c0 -5 5 -10 11 -10 5 0 7 5 4 10 -3 6 -8 10 -11 10 -2 0
-4 -4 -4 -10z"/>
</g>
</svg>
